<?xml version="1.0" standalone="no"?>
<!DOCTYPE svg PUBLIC "-//W3C//DTD SVG 20010904//EN"
 "http://www.w3.org/TR/2001/REC-SVG-20010904/DTD/svg10.dtd">
<svg version="1.0" xmlns="http://www.w3.org/2000/svg"
 width="48.000000pt" height="48.000000pt" viewBox="0 0 48.000000 48.000000"
 preserveAspectRatio="xMidYMid meet">
<metadata>
Created by potrace 1.11, written by Peter Selinger 2001-2013
</metadata>
<g transform="translate(0.000000,48.000000) scale(0.100000,-0.100000)"
fill="#000000" stroke="none">
<path d="M160 467 c-49 -16 -133 -102 -148 -153 -28 -94 -8 -169 63 -239 101
-102 229 -102 330 0 102 101 102 229 0 330 -70 71 -152 91 -245 62z m196 -43
c35 -21 56 -44 76 -83 37 -71 37 -131 0 -202 -24 -46 -32 -54 -57 -54 -22 0
-31 6 -41 31 -12 29 -11 35 11 65 14 18 25 44 25 58 0 14 7 39 15 55 19 36 19
52 0 36 -13 -11 -15 -8 -15 19 0 17 -4 31 -8 31 -4 0 -23 -24 -42 -54 -38 -59
-51 -66 -122 -66 -68 0 -106 -36 -115 -108 -7 -61 -22 -57 -49 14 -54 143 64
303 218 292 40 -3 70 -13 104 -34z"/>
</g>
</svg>
