<?xml version="1.0" encoding="UTF-8" standalone="no"?>
<!DOCTYPE svg PUBLIC "-//W3C//DTD SVG 1.1//EN" "http://www.w3.org/Graphics/SVG/1.1/DTD/svg11.dtd">
<svg xmlns:svg="http://www.w3.org/2000/svg" xmlns="http://www.w3.org/2000/svg" width="200" height="200" version="1.1" viewBox="0 0 200 200">
  <g transform="translate(-344.23506,-675.29435)">
    <g transform="matrix(1.3247665,0,0,1.3583059,-130.47826,-329.42616)">
      <g transform="matrix(1.25,0,0,-1.25,433.82234,739.6865)">
        <path d="m0 0c-33.35 0-60.39-27.03-60.39-60.39 0-26.68 17.3-49.32 41.3-57.3 3.02-0.56 4.13 1.31 4.13 2.91 0 1.44-0.06 6.2-0.08 11.24-16.8-3.65-20.34 7.13-20.34 7.13-2.75 6.98-6.7 8.84-6.7 8.84-5.48 3.75 0.41 3.67 0.41 3.67 6.06-0.43 9.26-6.22 9.26-6.22 5.39-9.23 14.13-6.56 17.57-5.02 0.54 3.9 2.11 6.57 3.83 8.07-13.41 1.53-27.51 6.71-27.51 29.84 0 6.59 2.36 11.98 6.22 16.21-0.63 1.52-2.69 7.66 0.59 15.98 0 0 5.07 1.62 16.61-6.19 4.82 1.34 9.98 2.01 15.12 2.03 5.13-0.02 10.3-0.69 15.13-2.03 11.53 7.81 16.59 6.19 16.59 6.19 3.29-8.32 1.22-14.46 0.59-15.98 3.87-4.23 6.21-9.62 6.21-16.21 0-23.19-14.13-28.3-27.57-29.8 2.17-1.87 4.1-5.55 4.1-11.18 0-8.08-0.07-14.58-0.07-16.57 0-1.61 1.09-3.49 4.15-2.9 23.98 7.99 41.26 30.62 41.26 57.29C60.39-27.03 33.35 0 0 0" fill="#fff"/>
      </g>
      <g transform="matrix(1.25,0,0,-1.25,386.92784,848.0655)">
        <path d="m0 0c-0.13-0.3-0.6-0.39-1.03-0.18-0.44 0.2-0.68 0.61-0.54 0.91 0.13 0.31 0.6 0.39 1.04 0.19C-0.1 0.71 0.15 0.3 0 0" fill="#fff"/>
      </g>
      <g transform="matrix(1.25,0,0,-1.25,389.98572,851.47613)">
        <path d="M0 0C-0.29-0.27-0.85-0.14-1.23 0.28-1.63 0.7-1.7 1.26-1.41 1.53-1.11 1.8-0.57 1.68-0.17 1.25 0.22 0.83 0.3 0.27 0 0" fill="#fff"/>
      </g>
      <g transform="matrix(1.25,0,0,-1.25,392.96184,855.823)">
        <path d="M0 0C-0.37-0.26-0.98-0.02-1.35 0.52-1.72 1.06-1.72 1.7-1.34 1.96-0.97 2.22-0.37 1.99 0.01 1.45 0.38 0.91 0.38 0.26 0 0" fill="#fff"/>
      </g>
      <g transform="matrix(1.25,0,0,-1.25,397.03897,860.0235)">
        <path d="M0 0C-0.33-0.36-1.04-0.27-1.55 0.23-2.08 0.72-2.23 1.41-1.9 1.77-1.56 2.14-0.85 2.04-0.33 1.54 0.19 1.06 0.35 0.36 0 0" fill="#fff"/>
      </g>
      <g transform="matrix(1.25,0,0,-1.25,402.66397,862.46238)">
        <path d="m0 0c-0.15-0.47-0.82-0.69-1.51-0.49-0.68 0.21-1.13 0.76-0.99 1.24 0.14 0.48 0.82 0.7 1.51 0.49C-0.31 1.03 0.14 0.48 0 0" fill="#fff"/>
      </g>
      <g transform="matrix(1.25,0,0,-1.25,408.84197,862.91413)">
        <path d="m0 0c0.02-0.5-0.56-0.91-1.28-0.92-0.72-0.02-1.31 0.39-1.31 0.88 0 0.5 0.57 0.91 1.29 0.92C-0.59 0.9 0 0.49 0 0" fill="#fff"/>
      </g>
      <g transform="matrix(1.25,0,0,-1.25,414.59022,861.93625)">
        <path d="m0 0c0.09-0.48-0.41-0.98-1.13-1.12-0.7-0.13-1.35 0.17-1.44 0.65-0.09 0.5 0.42 1 1.12 1.13C-0.73 0.79-0.09 0.49 0 0" fill="#fff"/>
      </g>
    </g>
    <g transform="matrix(1.25,0,0,-1.25,156.59822,944.00049)"/>
  </g>
</svg>
