<?xml version="1.0" standalone="yes"?>
<!DOCTYPE svg PUBLIC "-//W3C//DTD SVG 20010904//EN"
- "http://www.w3.org/TR/2001/REC-SVG-20010904/DTD/svg10.dtd">
<svg width="64" height="64">
<path style="fill:#010101; stroke:none;" d="M0 0L0 6L6 1L0 0z"/>
<path style="fill:#5d5f73; stroke:none;" d="M6.04012 0.858025C-5.15088 5.63035 0 35.8422 0 46C0 50.447 -0.855411 55.9786 1.89352 59.811C5.06696 64.2352 10.1263 63.9978 15 64C26.9698 64.0054 46.9288 67.8461 57.9599 63.142C69.1509 58.3697 64 28.1578 64 18C64 13.553 64.8554 8.02141 62.1065 4.18904C58.933 -0.235153 53.8737 0.00219345 49 0C37.0302 -0.00538635 17.0712 -3.84608 6.04012 0.858025z"/>
<path style="fill:#010101; stroke:none;" d="M58 0L63 6L64 0L58 0z"/>
<path style="fill:#9ea0a9; stroke:none;" d="M19 8L24 9L19 8z"/>
<path style="fill:#e7e5e7; stroke:none;" d="M2 31L7 30C7 36.6623 9.8515 49.6165 2 52L2 54L20 54C12.2038 47.5685 9.45709 30.1601 23 30L23 27L14 27C14.0036 21.545 13.6673 16.7985 19 14C21.0819 17.1963 27.5554 17.2433 26.1096 12.1289C24.8454 7.65704 17.9893 8.95236 15.0008 10.4568C8.10806 13.9266 5.89906 24.6928 2 31z"/>
<path style="fill:#9a9ba1; stroke:none;" d="M14 10L15 11L14 10z"/>
<path style="fill:#343a3f; stroke:none;" d="M27 12L27 16L27 12z"/>
<path style="fill:#828687; stroke:none;" d="M16 14L17 15L16 14M15 15L16 16L15 15M26 15L27 16L26 15z"/>
<path style="fill:#343a3f; stroke:none;" d="M15 16L15 26C16.3457 22.793 16.3457 19.207 15 16z"/>
<path style="fill:#9ea0a9; stroke:none;" d="M25 16L26 17L25 16z"/>
<path style="fill:#c9cbcc; stroke:none;" d="M14 17L14 27C15.3457 23.793 15.3457 20.207 14 17z"/>
<path style="fill:#aaacad; stroke:none;" d="M21 17L24 18L21 17z"/>
<path style="fill:#c9cbcc; stroke:none;" d="M7 18L7 23L7 18z"/>
<path style="fill:#52ae5b; stroke:none;" d="M36.6667 24.3333L37.3333 24.6667L36.6667 24.3333M45 24L49 25L45 24M25 25L25 28L29 28L26 27L34 26L25 25z"/>
<path style="fill:#4bea49; stroke:none;" d="M26 26C32.4186 32.2371 30 43.6912 30 52L26 52L26 54L42 54C39.5135 50.0573 33.7414 24.9291 45.811 31.0718C52.5125 34.4825 50 47.8863 50 54L61 54C55.4125 45.1404 60.9205 19.2391 43.0247 25.7176L38 29L38 25L26 26z"/>
<path style="fill:#2f3539; stroke:none;" d="M38 25L38 29L38 25z"/>
<path style="fill:#9a9ba1; stroke:none;" d="M15 26L23 27L15 26z"/>
<path style="fill:#aaacad; stroke:none;" d="M5 27L6 28L5 27z"/>
<path style="fill:#9a9ba1; stroke:none;" d="M3 28L4 29L3 28z"/>
<path style="fill:#343a3f; stroke:none;" d="M23.3333 29.6667L23.6667 30.3333L23.3333 29.6667z"/>
<path style="fill:#aaacad; stroke:none;" d="M3 30L7 31L3 30M15 30L23 31L15 30z"/>
<path style="fill:#424951; stroke:none;" d="M41 30L47 31L41 30z"/>
<path style="fill:#343a3f; stroke:none;" d="M57 30L57 35L57 30z"/>
<path style="fill:#424951; stroke:none;" d="M3 31L7 32L3 31z"/>
<path style="fill:#c9cbcc; stroke:none;" d="M14 31L14 49C15.9516 44.349 15.9516 35.651 14 31z"/>
<path style="fill:#343a3f; stroke:none;" d="M15 31L15 51C17.0866 46.0273 17.0866 35.9727 15 31z"/>
<path style="fill:#4b4f5b; stroke:none;" d="M16 31L23 32L16 31z"/>
<path style="fill:#2f3539; stroke:none;" d="M39 31L38 49L41 31L39 31z"/>
<path style="fill:#52ae5b; stroke:none;" d="M49 34L49 55C51.153 49.8692 51.153 39.1308 49 34z"/>
<path style="fill:#35623b; stroke:none;" d="M57 35L57 49C58.6668 45.0279 58.6668 38.9721 57 35z"/>
<path style="fill:#828687; stroke:none;" d="M6.33333 49.6667L6.66667 50.3333L6.33333 49.6667z"/>
<path style="fill:#35623b; stroke:none;" d="M38.3333 49.6667L38.6667 50.3333L38.3333 49.6667z"/>
<path style="fill:#3c9140; stroke:none;" d="M57.3333 49.6667L57.6667 50.3333L57.3333 49.6667z"/>
<path style="fill:#aaacad; stroke:none;" d="M15 51L16 52L15 51z"/>
<path style="fill:#828687; stroke:none;" d="M1 52C2.06372 56.964 10.7946 55 15 55L1 52z"/>
<path style="fill:#c9cbcc; stroke:none;" d="M18 52L21 54L18 52z"/>
<path style="fill:#3c9140; stroke:none;" d="M25 52C26.0456 56.8794 41.9544 56.8794 43 52C37.7123 54.9407 30.2877 54.9407 25 52M61 52C57.7341 54.4742 53.9899 53.9996 50 54C52.4474 55.1818 62.7602 56.6692 61 52z"/>
<path style="fill:#343a3f; stroke:none;" d="M21.3333 53.6667L21.6667 54.3333L21.3333 53.6667z"/>
<path style="fill:#424951; stroke:none;" d="M62.3333 53.6667L62.6667 54.3333L62.3333 53.6667z"/>
<path style="fill:#9a9ba1; stroke:none;" d="M15 54L21 55L15 54z"/>
<path style="fill:#010101; stroke:none;" d="M0 58L0 64L6 64L0 58M63 58L58 63L64 64L63 58z"/>
</svg>
