<?xml version="1.0" standalone="no"?>
<!DOCTYPE svg PUBLIC "-//W3C//DTD SVG 20010904//EN"
 "http://www.w3.org/TR/2001/REC-SVG-20010904/DTD/svg10.dtd">
<svg version="1.0" xmlns="http://www.w3.org/2000/svg"
 width="64.000000pt" height="64.000000pt" viewBox="0 0 64.000000 64.000000"
 preserveAspectRatio="xMidYMid meet">
<metadata>
Created by potrace 1.11, written by Peter Selinger 2001-2013
</metadata>
<g transform="translate(0.000000,64.000000) scale(0.100000,-0.100000)"
fill="#000000" stroke="none">
<path d="M65 631 c-11 -5 -29 -19 -40 -31 -19 -21 -20 -36 -20 -281 l0 -259
28 -27 27 -28 260 0 260 0 27 28 28 27 0 260 0 260 -28 27 -27 28 -248 2
c-136 1 -256 -2 -267 -6z m187 -88 c10 -9 18 -26 18 -39 0 -43 -69 -57 -84
-17 -5 12 -9 13 -21 3 -10 -8 -15 -31 -15 -64 l0 -52 40 4 c37 4 40 2 40 -22
0 -24 -4 -26 -40 -26 l-41 0 3 -102 3 -103 28 -3 c15 -2 27 -9 27 -17 0 -11
-19 -14 -95 -12 -55 1 -95 6 -96 12 0 6 8 12 18 14 29 5 33 20 33 119 0 92 0
92 -25 92 -14 0 -25 5 -25 10 0 6 11 16 25 22 21 9 25 18 25 51 0 53 31 100
83 126 51 25 74 26 99 4z m128 -168 l0 -24 38 25 c46 32 96 27 130 -11 19 -23
22 -37 22 -120 0 -107 5 -125 32 -125 11 0 18 -5 16 -11 -2 -7 -28 -12 -63
-12 l-60 0 -5 109 c-3 60 -9 115 -13 122 -12 17 -63 15 -82 -4 -13 -13 -15
-34 -13 -108 3 -86 4 -91 26 -94 13 -2 22 -8 20 -14 -5 -14 -168 -16 -168 -2
0 7 9 14 20 17 18 5 20 14 20 117 0 103 -2 112 -20 117 -41 11 -21 32 33 36
28 2 55 4 60 5 4 1 7 -9 7 -23z"/>
</g>
</svg>
