<?xml version="1.0" standalone="no"?>
<!DOCTYPE svg PUBLIC "-//W3C//DTD SVG 20010904//EN"
 "http://www.w3.org/TR/2001/REC-SVG-20010904/DTD/svg10.dtd">
<svg version="1.0" xmlns="http://www.w3.org/2000/svg"
 width="64.000000pt" height="64.000000pt" viewBox="0 0 64.000000 64.000000"
 preserveAspectRatio="xMidYMid meet">
<metadata>
Created by potrace 1.11, written by Peter Selinger 2001-2013
</metadata>
<g transform="translate(0.000000,64.000000) scale(0.100000,-0.100000)"
fill="#000000" stroke="none">
<path d="M440 543 c35 -13 41 -25 24 -44 -18 -20 -18 -20 66 -62 l45 -22 3
-136 3 -136 -39 -11 c-52 -16 -84 -15 -141 3 -39 13 -57 14 -106 4 -77 -14
-122 -16 -212 -6 -69 8 -73 7 -73 -12 0 -11 4 -23 10 -26 13 -8 549 -9 557 -1
4 3 12 1 20 -5 11 -10 13 28 13 225 l0 236 -92 -1 c-51 0 -86 -3 -78 -6z"/>
</g>
</svg>
