<?xml version="1.0" encoding="UTF-8" ?>
<!DOCTYPE svg PUBLIC "-//W3C//DTD SVG 1.1//EN" "http://www.w3.org/Graphics/SVG/1.1/DTD/svg11.dtd">
<svg xmlns="http://www.w3.org/2000/svg" width="400pt" height="400pt" viewBox="0 0 400 400" version="1.1">
  <path fill="#ffffff" d="M0 0L400 0 400 400 0 400 0 0Z"/>
  <path fill="#000000" d="M178.47 1.76C193.27 0.33 208.22 0.27 223 1.95 255.48 5.6 286.98 17.51 313.77 36.24 345.39 58.17 370.46 89.44 384.85 125.14 403.28 170.36 404.16 222.42 387.39 268.27 369.05 319.26 328.84 361.79 279.04 383.11 223.81 407.22 157.6 404.34 104.79 375.24 71.62 357.2 43.74 329.6 25.51 296.54 1.35 253.45-5.4 201.2 6.14 153.25 15.05 115.67 35.39 80.97 63.57 54.58 94.81 25.14 135.75 6.22 178.47 1.76Z"/>
  <path fill="#ffffff" d="M180.01 17.54C214.34 13.74 249.76 19.83 280.74 35.17 306.54 47.73 329.22 66.58 346.52 89.47 367.42 117.05 380.3 150.67 382.94 185.18 387.34 235.94 369.11 288.1 334.2 325.19 331.68 327.45 329.44 332 325.41 330.76 322.51 328.15 322.13 323.89 320.29 320.58 320.36 324.36 321.24 328.14 320.6 331.92 316.31 331.81 316.56 326.33 314.63 323.55 314.74 326.25 315.22 328.92 315.54 331.61 313.59 331.31 311.03 332.29 309.72 330.33 308.55 325.01 309.56 319.11 306.74 314.22 305.94 319.5 306.48 324.95 305.08 330.15 304.83 331.19 304.2 331.9 303.2 332.26 299.79 333.84 295.94 333.89 292.27 333.65 293.26 331.08 294.2 328.49 295.03 325.87 293.12 327.64 291.32 329.51 289.68 331.53 288.68 327.07 287.12 322.78 285.34 318.58 280.64 308.02 275.86 297.49 271.13 286.93 270.04 284 268.75 281.09 268.26 277.98 268.96 274.6 271 271.67 272.81 268.79 277.83 261.59 283.54 254.91 289.33 248.33 293.67 242.98 299.1 238.22 301.49 231.58 304.23 222.95 306.79 214.27 309.73 205.71 313.42 194.53 312 182.61 312.66 171.05 312.47 165.04 313.31 158.79 316.53 153.6 320.3 147.8 325.98 143.63 330.26 138.25 333.09 134.86 336.73 131.59 337.25 126.94 337.62 122.92 336.58 118.69 333.94 115.58 327.15 119.34 323.5 127.02 316.41 130.28 311.27 132.57 306.76 126.69 307.07 121.95 307.29 114.3 309.52 106.76 308.55 99.05 309.62 98.13 310.72 97.22 311.82 96.33 306.81 94.09 308.31 88.07 305.9 84.07 305.02 82.14 303.53 80.61 301.98 79.21 300.48 80.28 299.06 81.54 298.13 83.15 294.15 89.91 289.95 96.56 286.53 103.63 285.61 105.76 282.91 105.89 281.28 107.3 271.89 115 266.45 126.1 260.35 136.33 257.35 142.42 251.04 145.82 247.59 151.59 245.54 155.14 242.48 158.82 243.01 163.16 245.53 164.73 246.87 161.52 248.69 160.36 246.56 165.39 242.17 169.03 237.41 171.47 234.62 172.89 232.75 175.63 229.9 176.92 226.58 177.9 223.02 177.71 219.75 178.9 215.02 180.25 211.17 183.81 206.21 184.45 202.2 185.33 198.1 184.87 194.11 184.23 181.86 182.22 169.45 181.4 157.05 181.04 151.15 180.64 145.12 180.87 139.45 182.68 127.57 186.39 116.24 191.9 106.04 199.05 102.12 201.94 96.96 202.87 93.72 206.69 86.75 214.31 79.64 222.41 76.47 232.44 73.25 240.97 71.7 249.99 69.94 258.9 67.37 272.14 65.82 285.55 64.72 298.99 64.42 305.85 63.78 312.94 65.74 319.63 64.16 319.57 62.57 319.69 61 319.95 42.23 297.99 28.51 271.67 21.72 243.57 13.01 208.41 15.13 170.67 27.69 136.7 38.19 108.03 56.02 82.09 79.02 62.02 107.03 37.27 142.84 21.47 180.01 17.54Z"/>
  <path fill="#ffffff" d="M96.46 255.47C97.17 254.55 97.99 253.75 98.92 253.06 100.33 254.31 102.12 255.51 102.2 257.6 103.14 265.68 102.64 273.85 102.97 281.96 97.76 287.47 91.75 292.53 88.54 299.58 83.94 307.91 83.95 317.89 79.85 326.37 78.97 324.99 78.12 323.61 77.36 322.18 76.75 322.55 75.54 323.28 74.94 323.65 80.81 311.25 86.7 298.83 92.24 286.29 94.75 276.21 92.42 265.26 96.46 255.47Z"/>
  <path fill="#ffffff" d="M159.23 261.76C163.69 264.59 166.97 269.05 171.99 271.04 185.79 277.2 201.31 275.84 216.01 275.37 219.57 275.41 224.38 275.01 226.14 278.94 228.36 284.01 229.88 289.43 232.88 294.16 236.74 300.17 237.46 307.41 239.02 314.21 240.55 320.41 243.17 326.27 245.96 331.99 242.05 331.42 238.24 330.34 234.43 329.31 233.72 325.99 235.08 322.96 236.87 320.25 233.6 320.93 231.44 323.37 230.33 326.39 229.11 329.42 225.17 328.06 223.01 326.95 217.36 323.09 217.02 315.68 216.3 309.55 215.67 311.93 215.31 314.37 214.97 316.81 214.33 315.3 213.58 313.83 212.87 312.35 212.3 316.36 212.53 320.46 211.52 324.41 208.51 322.63 209.07 318.29 206.88 315.73 205.96 318.09 206.2 320.63 206.26 323.1 204.98 323.12 203.71 323.13 202.44 323.15 202.08 321.43 201.45 319.82 200.48 318.37 199.09 316.2 200.99 313.95 202.01 312.09 194.7 309.79 191.28 302.19 185.11 298.26 189.12 305.48 197.53 311.73 196 320.94 194.72 318.08 193.62 315.11 191.68 312.6 191.3 313.93 190.94 315.27 190.59 316.61 187.49 316.31 184.64 317.72 182.63 320.03 180.32 318.27 176.95 318.04 176.07 314.83 175.02 315.34 173.97 315.86 172.93 316.38 174.05 318.31 175.28 320.17 176.36 322.13 173.53 323.1 170.94 321.6 168.39 320.54 165.73 317.7 165.48 313.62 165.26 309.95 163.85 311 161.75 311.95 161.95 314.05 161.89 316.58 164.94 317.61 165.26 320.01 165.39 320.73 165.64 322.16 165.77 322.88 165.12 322.75 163.8 322.49 163.15 322.36 162.61 323.64 162 324.89 161.31 326.11 160.07 322.74 161.03 319.17 160.79 315.69 157.17 316.62 158.79 321.35 158.04 324.05 156.68 321.51 155.54 318.87 154.11 316.37 154.43 320.02 155.08 323.63 155.26 327.29 150.59 325.57 148.5 319.79 142.98 319.78 142.62 322.38 142.37 324.99 142.04 327.6 140.05 324.46 138.08 321.3 135.72 318.43 135.15 318.44 134.01 318.47 133.44 318.48 133.15 320.72 132.77 323.07 133.67 325.23 135 329.46 138.69 332.23 140.59 336.15 139.12 336.29 137.65 336.28 136.19 336.14 132.82 333.22 132.23 328.54 130.25 324.75 130.23 328.91 132.15 333.2 130.13 337.18 126.04 331.34 123.26 324.69 119.32 318.74 121.49 316.68 123.76 314.7 125.65 312.36 122.51 313.82 117.97 315.91 118.28 320.04 118.21 324.92 118.42 329.8 118.14 334.68 117.26 334.56 115.49 334.34 114.61 334.22 114.45 331.75 114.55 329.29 114.52 326.82 113.55 327.32 112.58 327.82 111.62 328.34 110.39 324.79 109.3 321.17 107.71 317.75 107.55 321.45 108.09 325.13 108.23 328.83 106.04 325.99 102.89 322.94 103.51 319.02 104.78 308.42 112.83 299.71 122.15 295.15 127.12 292.59 133.23 292.4 137.45 288.45 146.5 281.09 151.09 269.91 159.23 261.76Z"/>
  <path fill="#ffffff" d="M259.96 330.45C258.09 323.42 256.71 315.97 257.57 308.68 259.47 310.64 261.68 312.47 262.85 314.99 261.55 320.1 262.64 325.72 259.96 330.45Z"/>
  <path fill="#000000" d="M147.69 315.46C148.65 317.11 148.8 319.14 147.53 320.69 147.37 318.94 147.43 317.2 147.69 315.46Z"/>
  <path fill="#ffffff" d="M263.47 315.3C265.62 318.62 268.02 321.82 269.66 325.43 270.75 329.32 268.7 333.82 264.86 335.26 263.61 328.68 264.11 321.94 263.47 315.3Z"/>
  <path fill="#ffffff" d="M189.11 320.03C190.77 319.44 191.28 319.96 190.66 321.58 188.98 322.15 188.46 321.63 189.11 320.03Z"/>
  <path fill="#ffffff" d="M134.85 321.11C136.18 320.35 137.5 322.71 136.64 323.74 135.26 324.46 133.94 322.17 134.85 321.11Z"/>
  <path fill="#ffffff" d="M144.65 323.26C147.63 324.91 149.01 328.2 148.82 331.51 145.48 330.35 144.36 326.46 144.65 323.26Z"/>
  <path fill="#ffffff" d="M102.86 329.9C104.74 330.56 106.15 331.95 107.07 333.7 105.18 333.06 102.75 332.39 102.86 329.9Z"/>
  <path fill="#ffffff" d="M272.25 334.69C272.52 333.22 273.41 331.98 274.11 330.69 274.98 332.51 275.64 334.43 276.2 336.38 274.7 336.14 272.69 336.64 272.25 334.69Z"/>
</svg>
